<svg width="136" height="40" viewBox="0 0 136 40" fill="none" xmlns="http://www.w3.org/2000/svg">
<g clip-path="url(#clip0_5371_34710)">
<path d="M116.661 39.501H5.66493C3.18483 39.501 1.16309 37.471 1.16309 35.001V5.00098C1.16309 2.52167 3.18418 0.500977 5.66493 0.500977H116.661C119.14 0.500977 121.163 2.52184 121.163 5.00098V35.001C121.163 37.4708 119.139 39.501 116.661 39.501Z" stroke="white"/>
<path d="M17.1931 17.0491L14.5387 12.5969C14.4676 12.4774 14.4482 12.3355 14.4847 12.2021C14.5212 12.0688 14.6108 11.9549 14.7337 11.8852C14.7945 11.8507 14.8617 11.8282 14.9315 11.819C15.0013 11.8098 15.0723 11.8141 15.1404 11.8317C15.2085 11.8492 15.2723 11.8797 15.3281 11.9213C15.3839 11.9629 15.4307 12.0148 15.4656 12.074L18.1531 16.5837C20.205 15.676 22.5144 15.1707 24.9981 15.1707C27.4819 15.1707 29.7913 15.6766 31.8431 16.5837L34.5306 12.074C34.6022 11.9546 34.7199 11.8676 34.8577 11.8322C34.9956 11.7968 35.1423 11.8159 35.2656 11.8852C35.389 11.9545 35.4788 12.0685 35.5153 12.2019C35.5519 12.3354 35.5322 12.4775 35.4606 12.5969L32.8125 17.0491C37.3875 19.448 40.4881 23.9341 41 29.1857H9C9.51188 23.9341 12.6125 19.448 17.1931 17.0491ZM32.3469 24.8346C32.6121 24.8346 32.8715 24.7584 33.092 24.6157C33.3126 24.473 33.4845 24.2702 33.586 24.0329C33.6875 23.7956 33.7141 23.5344 33.6624 23.2825C33.6106 23.0306 33.4829 22.7992 33.2953 22.6176C33.1077 22.4359 32.8687 22.3122 32.6085 22.2621C32.3484 22.212 32.0787 22.2377 31.8336 22.336C31.5885 22.4343 31.379 22.6008 31.2317 22.8144C31.0843 23.0279 31.0056 23.279 31.0056 23.5359C31.0058 23.8803 31.1472 24.2105 31.3987 24.454C31.6501 24.6975 31.9912 24.8344 32.3469 24.8346ZM17.6594 24.8346C17.9244 24.8335 18.1832 24.7564 18.403 24.613C18.6228 24.4697 18.7939 24.2665 18.8945 24.0291C18.9952 23.7917 19.0209 23.5307 18.9685 23.2792C18.9162 23.0276 18.788 22.7967 18.6002 22.6157C18.4124 22.4346 18.1734 22.3114 17.9134 22.2618C17.6533 22.2121 17.3839 22.2381 17.1392 22.3366C16.8944 22.435 16.6853 22.6015 16.5382 22.8149C16.391 23.0284 16.3125 23.2792 16.3125 23.5359C16.3126 23.7066 16.3474 23.8757 16.4151 24.0335C16.4827 24.1912 16.5818 24.3345 16.7066 24.4551C16.8315 24.5757 16.9797 24.6713 17.1427 24.7364C17.3058 24.8015 17.4805 24.8349 17.6569 24.8346H17.6594Z" fill="white"/>
<path d="M106.938 29.2426V18.0624H109V31.1514H107.134L106.938 29.2426ZM100.939 26.6435V26.4646C100.939 25.7658 101.021 25.1296 101.186 24.5558C101.351 23.9763 101.589 23.4792 101.902 23.0645C102.214 22.6441 102.595 22.3232 103.043 22.1016C103.492 21.8744 103.998 21.7607 104.56 21.7607C105.117 21.7607 105.606 21.8687 106.026 22.0845C106.446 22.3004 106.804 22.61 107.1 23.0134C107.395 23.4111 107.631 23.8883 107.807 24.445C107.983 24.9961 108.108 25.6096 108.182 26.2856V26.8566C108.108 27.5156 107.983 28.1178 107.807 28.6631C107.631 29.2085 107.395 29.68 107.1 30.0777C106.804 30.4754 106.444 30.7821 106.017 30.998C105.597 31.2139 105.106 31.3218 104.543 31.3218C103.987 31.3218 103.484 31.2054 103.035 30.9725C102.592 30.7395 102.214 30.4129 101.902 29.9925C101.589 29.5721 101.351 29.0778 101.186 28.5097C101.021 27.936 100.939 27.3139 100.939 26.6435ZM102.992 26.4646V26.6435C102.992 27.0639 103.029 27.4559 103.103 27.8195C103.183 28.1831 103.305 28.5041 103.47 28.7824C103.634 29.0551 103.847 29.271 104.109 29.4301C104.376 29.5835 104.694 29.6601 105.063 29.6601C105.529 29.6601 105.912 29.5579 106.213 29.3534C106.515 29.1489 106.75 28.8733 106.921 28.5268C107.097 28.1746 107.216 27.7826 107.279 27.3508V25.8084C107.245 25.4733 107.174 25.1608 107.066 24.8711C106.963 24.5813 106.824 24.3285 106.648 24.1127C106.472 23.8911 106.253 23.7207 105.992 23.6014C105.736 23.4764 105.432 23.4139 105.08 23.4139C104.705 23.4139 104.387 23.4934 104.126 23.6525C103.864 23.8116 103.649 24.0303 103.478 24.3087C103.313 24.587 103.191 24.9108 103.112 25.2801C103.032 25.6494 102.992 26.0442 102.992 26.4646Z" fill="white"/>
<path d="M99.0639 21.9312V31.1514H97.0017V21.9312H99.0639ZM96.8654 19.5111C96.8654 19.1986 96.9677 18.9401 97.1722 18.7356C97.3824 18.5254 97.6721 18.4203 98.0414 18.4203C98.405 18.4203 98.6918 18.5254 98.902 18.7356C99.1122 18.9401 99.2173 19.1986 99.2173 19.5111C99.2173 19.8178 99.1122 20.0735 98.902 20.278C98.6918 20.4825 98.405 20.5848 98.0414 20.5848C97.6721 20.5848 97.3824 20.4825 97.1722 20.278C96.9677 20.0735 96.8654 19.8178 96.8654 19.5111Z" fill="white"/>
<path d="M86.5715 26.6436V26.4476C86.5715 25.7829 86.668 25.1665 86.8612 24.5984C87.0543 24.0246 87.3327 23.5275 87.6963 23.1071C88.0656 22.6811 88.5144 22.3516 89.0427 22.1186C89.5767 21.88 90.1789 21.7607 90.8492 21.7607C91.5253 21.7607 92.1275 21.88 92.6558 22.1186C93.1898 22.3516 93.6414 22.6811 94.0107 23.1071C94.38 23.5275 94.6612 24.0246 94.8543 24.5984C95.0475 25.1665 95.1441 25.7829 95.1441 26.4476V26.6436C95.1441 27.3082 95.0475 27.9246 94.8543 28.4927C94.6612 29.0608 94.38 29.5579 94.0107 29.984C93.6414 30.4044 93.1926 30.7339 92.6643 30.9725C92.136 31.2054 91.5366 31.3218 90.8663 31.3218C90.1902 31.3218 89.5852 31.2054 89.0512 30.9725C88.5229 30.7339 88.0741 30.4044 87.7048 29.984C87.3356 29.5579 87.0543 29.0608 86.8612 28.4927C86.668 27.9246 86.5715 27.3082 86.5715 26.6436ZM88.6251 26.4476V26.6436C88.6251 27.0583 88.6677 27.4503 88.753 27.8195C88.8382 28.1888 88.9717 28.5126 89.1535 28.791C89.3353 29.0693 89.5682 29.2881 89.8522 29.4471C90.1363 29.6062 90.4743 29.6857 90.8663 29.6857C91.2469 29.6857 91.5764 29.6062 91.8548 29.4471C92.1388 29.2881 92.3717 29.0693 92.5535 28.791C92.7353 28.5126 92.8688 28.1888 92.954 27.8195C93.0449 27.4503 93.0904 27.0583 93.0904 26.6436V26.4476C93.0904 26.0385 93.0449 25.6522 92.954 25.2886C92.8688 24.9194 92.7325 24.5927 92.545 24.3087C92.3632 24.0246 92.1303 23.8031 91.8463 23.644C91.5679 23.4792 91.2355 23.3969 90.8492 23.3969C90.4629 23.3969 90.1278 23.4792 89.8437 23.644C89.5653 23.8031 89.3353 24.0246 89.1535 24.3087C88.9717 24.5927 88.8382 24.9194 88.753 25.2886C88.6677 25.6522 88.6251 26.0385 88.6251 26.4476Z" fill="white"/>
<path d="M83.0776 23.6866V31.1514H81.024V21.9312H82.9839L83.0776 23.6866ZM85.8982 21.8715L85.8812 23.7803C85.7562 23.7576 85.6199 23.7406 85.4722 23.7292C85.3301 23.7178 85.1881 23.7122 85.0461 23.7122C84.6939 23.7122 84.3843 23.7633 84.1173 23.8655C83.8502 23.9621 83.6258 24.1042 83.4441 24.2916C83.2679 24.4734 83.1316 24.695 83.035 24.9563C82.9384 25.2176 82.8816 25.5102 82.8646 25.834L82.3959 25.8681C82.3959 25.2886 82.4527 24.7518 82.5663 24.2575C82.68 23.7633 82.8504 23.3287 83.0776 22.9538C83.3106 22.5788 83.6003 22.2862 83.9468 22.076C84.299 21.8658 84.7052 21.7607 85.1654 21.7607C85.2904 21.7607 85.4239 21.7721 85.5659 21.7948C85.7136 21.8176 85.8244 21.8431 85.8982 21.8715Z" fill="white"/>
<path d="M76.8058 29.2426V18.0624H78.868V31.1514H77.0018L76.8058 29.2426ZM70.8067 26.6435V26.4646C70.8067 25.7658 70.8891 25.1296 71.0538 24.5558C71.2186 23.9763 71.4572 23.4792 71.7696 23.0645C72.0821 22.6441 72.4627 22.3232 72.9115 22.1016C73.3603 21.8744 73.8659 21.7607 74.4283 21.7607C74.9851 21.7607 75.4736 21.8687 75.894 22.0845C76.3144 22.3004 76.6723 22.61 76.9677 23.0134C77.2631 23.4111 77.4989 23.8883 77.675 24.445C77.8511 24.9961 77.9761 25.6096 78.05 26.2856V26.8566C77.9761 27.5156 77.8511 28.1178 77.675 28.6631C77.4989 29.2085 77.2631 29.68 76.9677 30.0777C76.6723 30.4754 76.3116 30.7821 75.8855 30.998C75.4651 31.2139 74.9737 31.3218 74.4113 31.3218C73.8546 31.3218 73.3518 31.2054 72.903 30.9725C72.4599 30.7395 72.0821 30.4129 71.7696 29.9925C71.4572 29.5721 71.2186 29.0778 71.0538 28.5097C70.8891 27.936 70.8067 27.3139 70.8067 26.6435ZM72.8604 26.4646V26.6435C72.8604 27.0639 72.8973 27.4559 72.9712 27.8195C73.0507 28.1831 73.1728 28.5041 73.3376 28.7824C73.5023 29.0551 73.7154 29.271 73.9767 29.4301C74.2437 29.5835 74.5618 29.6601 74.9311 29.6601C75.3969 29.6601 75.7804 29.5579 76.0815 29.3534C76.3826 29.1489 76.6184 28.8733 76.7888 28.5268C76.9649 28.1746 77.0842 27.7826 77.1467 27.3508V25.8084C77.1126 25.4733 77.0416 25.1608 76.9336 24.8711C76.8314 24.5813 76.6922 24.3285 76.5161 24.1127C76.34 23.8911 76.1213 23.7207 75.8599 23.6014C75.6043 23.4764 75.3004 23.4139 74.9481 23.4139C74.5732 23.4139 74.2551 23.4934 73.9937 23.6525C73.7324 23.8116 73.5165 24.0303 73.3461 24.3087C73.1814 24.587 73.0592 24.9108 72.9797 25.2801C72.9001 25.6494 72.8604 26.0442 72.8604 26.4646Z" fill="white"/>
<path d="M63.5038 23.8996V31.1514H61.4501V21.9312H63.3845L63.5038 23.8996ZM63.1374 26.2004L62.4727 26.1919C62.4784 25.5386 62.5693 24.9393 62.7454 24.3939C62.9272 23.8485 63.1771 23.3798 63.4953 22.9878C63.8191 22.5958 64.2054 22.2948 64.6542 22.0846C65.103 21.8687 65.6029 21.7607 66.154 21.7607C66.5971 21.7607 66.9976 21.8232 67.3555 21.9482C67.7191 22.0675 68.0287 22.2635 68.2843 22.5362C68.5457 22.8089 68.7445 23.1639 68.8809 23.6014C69.0172 24.0331 69.0854 24.5643 69.0854 25.1949V31.1514H67.0232V25.1864C67.0232 24.7433 66.9578 24.3939 66.8272 24.1382C66.7022 23.8769 66.5176 23.6923 66.2733 23.5843C66.0347 23.4707 65.7364 23.4139 65.3785 23.4139C65.0263 23.4139 64.711 23.4878 64.4326 23.6355C64.1543 23.7832 63.9185 23.9848 63.7254 24.2405C63.5379 24.4961 63.393 24.7916 63.2908 25.1267C63.1885 25.4619 63.1374 25.8198 63.1374 26.2004Z" fill="white"/>
<path d="M55.0846 20.3973L51.3777 31.1514H49.1366L53.8063 18.7441H55.2379L55.0846 20.3973ZM58.1864 31.1514L54.471 20.3973L54.3091 18.7441H55.7492L60.4361 31.1514H58.1864ZM58.0074 26.5498V28.2456H51.2584V26.5498H58.0074Z" fill="white"/>
<path d="M101.488 14.5514V9.85788H102.371V10.6035H102.42C102.506 10.3509 102.657 10.1522 102.872 10.0076C103.09 9.86093 103.337 9.7876 103.612 9.7876C103.669 9.7876 103.736 9.78963 103.814 9.79371C103.893 9.79778 103.955 9.80288 104 9.80899V10.6829C103.963 10.6727 103.898 10.6615 103.804 10.6493C103.711 10.635 103.617 10.6279 103.523 10.6279C103.307 10.6279 103.115 10.6737 102.946 10.7654C102.779 10.855 102.646 10.9803 102.549 11.1413C102.451 11.3002 102.402 11.4815 102.402 11.6852V14.5514H101.488Z" fill="white"/>
<path d="M98.2805 14.6462C97.8405 14.6462 97.4565 14.5453 97.1285 14.3436C96.8006 14.142 96.5459 13.8598 96.3646 13.4972C96.1833 13.1346 96.0927 12.7109 96.0927 12.2261C96.0927 11.7392 96.1833 11.3134 96.3646 10.9488C96.5459 10.5841 96.8006 10.301 97.1285 10.0993C97.4565 9.89762 97.8405 9.79678 98.2805 9.79678C98.7205 9.79678 99.1045 9.89762 99.4325 10.0993C99.7605 10.301 100.015 10.5841 100.196 10.9488C100.378 11.3134 100.468 11.7392 100.468 12.2261C100.468 12.7109 100.378 13.1346 100.196 13.4972C100.015 13.8598 99.7605 14.142 99.4325 14.3436C99.1045 14.5453 98.7205 14.6462 98.2805 14.6462ZM98.2836 13.8792C98.5688 13.8792 98.8051 13.8038 98.9925 13.6531C99.1799 13.5023 99.3184 13.3017 99.4081 13.0511C99.4997 12.8005 99.5456 12.5245 99.5456 12.223C99.5456 11.9235 99.4997 11.6485 99.4081 11.398C99.3184 11.1454 99.1799 10.9427 98.9925 10.7899C98.8051 10.6371 98.5688 10.5607 98.2836 10.5607C97.9963 10.5607 97.758 10.6371 97.5685 10.7899C97.3811 10.9427 97.2416 11.1454 97.1499 11.398C97.0603 11.6485 97.0155 11.9235 97.0155 12.223C97.0155 12.5245 97.0603 12.8005 97.1499 13.0511C97.2416 13.3017 97.3811 13.5023 97.5685 13.6531C97.758 13.8038 97.9963 13.8792 98.2836 13.8792Z" fill="white"/>
<path d="M95.5457 9.85785V10.5912H92.8934V9.85785H95.5457ZM93.6206 14.5514V9.31394C93.6206 9.0206 93.6848 8.77716 93.8131 8.58364C93.9415 8.38807 94.1116 8.24242 94.3234 8.14667C94.5353 8.04889 94.7655 8 95.014 8C95.1974 8 95.3542 8.01528 95.4846 8.04584C95.615 8.07436 95.7117 8.10084 95.7749 8.12528L95.561 8.86476C95.5182 8.85254 95.4632 8.83828 95.396 8.82198C95.3287 8.80364 95.2473 8.79448 95.1515 8.79448C94.9295 8.79448 94.7706 8.84948 94.6748 8.95948C94.5811 9.06949 94.5343 9.22838 94.5343 9.43617V14.5514H93.6206Z" fill="white"/>
<path d="M87.4054 14.6431C87.0264 14.6431 86.6883 14.5463 86.3909 14.3528C86.0955 14.1572 85.8633 13.8792 85.6942 13.5186C85.5271 13.156 85.4436 12.721 85.4436 12.2138C85.4436 11.7066 85.5281 11.2727 85.6972 10.9121C85.8683 10.5515 86.1026 10.2755 86.4 10.084C86.6975 9.89251 87.0346 9.79676 87.4115 9.79676C87.7028 9.79676 87.937 9.84565 88.1143 9.94343C88.2935 10.0392 88.4321 10.1512 88.5298 10.2796C88.6297 10.4079 88.7071 10.521 88.7621 10.6187H88.8171V8.29337H89.7307V14.5514H88.8385V13.8211H88.7621C88.7071 13.9209 88.6276 14.035 88.5237 14.1633C88.4219 14.2917 88.2813 14.4037 88.102 14.4995C87.9228 14.5952 87.6905 14.6431 87.4054 14.6431ZM87.607 13.8639C87.8698 13.8639 88.0919 13.7946 88.2732 13.6561C88.4565 13.5155 88.595 13.321 88.6887 13.0725C88.7845 12.8239 88.8324 12.5347 88.8324 12.2046C88.8324 11.8787 88.7855 11.5935 88.6918 11.349C88.5981 11.1046 88.4606 10.9141 88.2793 10.7776C88.098 10.6411 87.8739 10.5729 87.607 10.5729C87.332 10.5729 87.1028 10.6442 86.9195 10.7868C86.7362 10.9294 86.5976 11.1239 86.5039 11.3704C86.4123 11.6169 86.3664 11.895 86.3664 12.2046C86.3664 12.5184 86.4133 12.8005 86.507 13.0511C86.6007 13.3016 86.7392 13.5002 86.9226 13.6469C87.1079 13.7916 87.3361 13.8639 87.607 13.8639Z" fill="white"/>
<path d="M82.1152 14.6553C81.8178 14.6553 81.5489 14.6003 81.3085 14.4903C81.0681 14.3783 80.8776 14.2163 80.7371 14.0045C80.5986 13.7926 80.5293 13.5329 80.5293 13.2253C80.5293 12.9604 80.5802 12.7425 80.6821 12.5713C80.7839 12.4002 80.9214 12.2648 81.0946 12.1649C81.2678 12.0651 81.4613 11.9897 81.6752 11.9388C81.8891 11.8879 82.107 11.8492 82.3291 11.8227C82.6102 11.7901 82.8384 11.7636 83.0136 11.7433C83.1888 11.7208 83.3161 11.6852 83.3955 11.6363C83.475 11.5874 83.5147 11.508 83.5147 11.398V11.3766C83.5147 11.1097 83.4393 10.9029 83.2886 10.7563C83.1399 10.6096 82.9178 10.5363 82.6224 10.5363C82.3148 10.5363 82.0724 10.6045 81.8952 10.741C81.72 10.8754 81.5988 11.0252 81.5316 11.1902L80.6729 10.9946C80.7748 10.7094 80.9235 10.4792 81.119 10.304C81.3166 10.1268 81.5438 9.99846 81.8005 9.91901C82.0571 9.83753 82.3271 9.79678 82.6102 9.79678C82.7976 9.79678 82.9963 9.81919 83.2061 9.86401C83.4179 9.90679 83.6155 9.98624 83.7989 10.1024C83.9843 10.2185 84.136 10.3845 84.2542 10.6004C84.3723 10.8143 84.4314 11.0924 84.4314 11.4346V14.5514H83.5391V13.9097H83.5025C83.4434 14.0279 83.3548 14.144 83.2366 14.2581C83.1185 14.3722 82.9667 14.4669 82.7813 14.5423C82.596 14.6176 82.3739 14.6553 82.1152 14.6553ZM82.3138 13.922C82.5664 13.922 82.7824 13.872 82.9616 13.7722C83.1429 13.6724 83.2804 13.542 83.3741 13.3811C83.4699 13.2181 83.5178 13.044 83.5178 12.8586V12.2536C83.4852 12.2861 83.422 12.3167 83.3283 12.3452C83.2366 12.3717 83.1317 12.3951 83.0136 12.4155C82.8954 12.4338 82.7803 12.4512 82.6683 12.4674C82.5562 12.4817 82.4625 12.4939 82.3872 12.5041C82.2099 12.5265 82.048 12.5642 81.9013 12.6172C81.7567 12.6701 81.6405 12.7465 81.553 12.8464C81.4674 12.9441 81.4246 13.0745 81.4246 13.2375C81.4246 13.4636 81.5081 13.6347 81.6752 13.7508C81.8422 13.8649 82.0551 13.922 82.3138 13.922Z" fill="white"/>
<path d="M77.5416 14.6462C77.1016 14.6462 76.7176 14.5453 76.3896 14.3436C76.0617 14.142 75.807 13.8598 75.6257 13.4972C75.4444 13.1346 75.3538 12.7109 75.3538 12.2261C75.3538 11.7392 75.4444 11.3134 75.6257 10.9488C75.807 10.5841 76.0617 10.301 76.3896 10.0993C76.7176 9.89762 77.1016 9.79678 77.5416 9.79678C77.9816 9.79678 78.3656 9.89762 78.6936 10.0993C79.0216 10.301 79.2762 10.5841 79.4575 10.9488C79.6388 11.3134 79.7295 11.7392 79.7295 12.2261C79.7295 12.7109 79.6388 13.1346 79.4575 13.4972C79.2762 13.8598 79.0216 14.142 78.6936 14.3436C78.3656 14.5453 77.9816 14.6462 77.5416 14.6462ZM77.5447 13.8792C77.8299 13.8792 78.0662 13.8038 78.2536 13.6531C78.441 13.5023 78.5795 13.3017 78.6692 13.0511C78.7608 12.8005 78.8067 12.5245 78.8067 12.223C78.8067 11.9235 78.7608 11.6485 78.6692 11.398C78.5795 11.1454 78.441 10.9427 78.2536 10.7899C78.0662 10.6371 77.8299 10.5607 77.5447 10.5607C77.2574 10.5607 77.0191 10.6371 76.8297 10.7899C76.6422 10.9427 76.5027 11.1454 76.411 11.398C76.3214 11.6485 76.2766 11.9235 76.2766 12.223C76.2766 12.5245 76.3214 12.8005 76.411 13.0511C76.5027 13.3017 76.6422 13.5023 76.8297 13.6531C77.0191 13.8038 77.2574 13.8792 77.5447 13.8792Z" fill="white"/>
<path d="M74.3354 8.29337V14.5514H73.4218V8.29337H74.3354Z" fill="white"/>
<path d="M69.1927 11.7646V14.5514H68.2791V9.8579H69.1561V10.6218H69.2141C69.3221 10.3733 69.4912 10.1737 69.7214 10.0229C69.9536 9.87216 70.2459 9.79678 70.5983 9.79678C70.9182 9.79678 71.1983 9.86401 71.4387 9.99846C71.679 10.1309 71.8654 10.3285 71.9978 10.5913C72.1303 10.854 72.1965 11.179 72.1965 11.566V14.5514H71.2828V11.676C71.2828 11.3358 71.1942 11.07 71.017 10.8785C70.8397 10.685 70.5963 10.5882 70.2867 10.5882C70.0748 10.5882 69.8864 10.634 69.7214 10.7257C69.5584 10.8174 69.429 10.9518 69.3333 11.1291C69.2396 11.3043 69.1927 11.5161 69.1927 11.7646Z" fill="white"/>
<path d="M62.196 14.5514L60.8148 9.85788H61.759L62.6788 13.3047H62.7246L63.6474 9.85788H64.5916L65.5083 13.2894H65.5542L66.4678 9.85788H67.412L66.0339 14.5514H65.1019L64.1486 11.1627H64.0783L63.1249 14.5514H62.196Z" fill="white"/>
<path d="M58.1136 14.6462C57.6736 14.6462 57.2896 14.5453 56.9616 14.3436C56.6336 14.142 56.379 13.8598 56.1977 13.4972C56.0164 13.1346 55.9257 12.7109 55.9257 12.2261C55.9257 11.7392 56.0164 11.3134 56.1977 10.9488C56.379 10.5841 56.6336 10.301 56.9616 10.0993C57.2896 9.89762 57.6736 9.79678 58.1136 9.79678C58.5536 9.79678 58.9376 9.89762 59.2656 10.0993C59.5936 10.301 59.8482 10.5841 60.0295 10.9488C60.2108 11.3134 60.3015 11.7392 60.3015 12.2261C60.3015 12.7109 60.2108 13.1346 60.0295 13.4972C59.8482 13.8598 59.5936 14.142 59.2656 14.3436C58.9376 14.5453 58.5536 14.6462 58.1136 14.6462ZM58.1166 13.8792C58.4018 13.8792 58.6381 13.8038 58.8256 13.6531C59.013 13.5023 59.1515 13.3017 59.2411 13.0511C59.3328 12.8005 59.3786 12.5245 59.3786 12.223C59.3786 11.9235 59.3328 11.6485 59.2411 11.398C59.1515 11.1454 59.013 10.9427 58.8256 10.7899C58.6381 10.6371 58.4018 10.5607 58.1166 10.5607C57.8294 10.5607 57.5911 10.6371 57.4016 10.7899C57.2142 10.9427 57.0747 11.1454 56.983 11.398C56.8934 11.6485 56.8485 11.9235 56.8485 12.223C56.8485 12.5245 56.8934 12.8005 56.983 13.0511C57.0747 13.3017 57.2142 13.5023 57.4016 13.6531C57.5911 13.8038 57.8294 13.8792 58.1166 13.8792Z" fill="white"/>
<path d="M52.0259 14.5514H50V8.29337H52.0901C52.7033 8.29337 53.2299 8.41865 53.6699 8.66921C54.1099 8.91774 54.447 9.27526 54.6813 9.74176C54.9176 10.2062 55.0358 10.7634 55.0358 11.4132C55.0358 12.0651 54.9166 12.6253 54.6782 13.0938C54.4419 13.5624 54.0997 13.923 53.6515 14.1756C53.2034 14.4261 52.6615 14.5514 52.0259 14.5514ZM50.9442 13.7264H51.974C52.4507 13.7264 52.8469 13.6367 53.1626 13.4575C53.4784 13.2762 53.7147 13.0144 53.8715 12.6722C54.0284 12.3279 54.1068 11.9082 54.1068 11.4132C54.1068 10.9223 54.0284 10.5057 53.8715 10.1634C53.7167 9.82121 53.4855 9.56147 53.1779 9.38424C52.8703 9.20701 52.4883 9.1184 52.032 9.1184H50.9442V13.7264Z" fill="white"/>
</g>
<defs>
<clipPath id="clip0_5371_34710">
<rect width="135" height="40" fill="white" transform="translate(0.664062)"/>
</clipPath>
</defs>
</svg>
