<svg width="24" height="24" viewBox="0 0 24 24" fill="none" xmlns="http://www.w3.org/2000/svg">
<path fill-rule="evenodd" clip-rule="evenodd" d="M18.011 18.7173C17.8157 18.9126 17.4992 18.9126 17.3039 18.7173L5.28309 6.69648C5.08783 6.50122 5.08783 6.18463 5.28309 5.98937L5.9902 5.28226C6.18546 5.087 6.50204 5.087 6.6973 5.28226L18.7181 17.3031C18.9134 17.4983 18.9134 17.8149 18.7181 18.0102L18.011 18.7173Z" fill="black"/>
<path fill-rule="evenodd" clip-rule="evenodd" d="M18.7163 5.98948C18.9116 6.18474 18.9116 6.50132 18.7163 6.69658L6.6955 18.7174C6.50024 18.9127 6.18366 18.9127 5.98839 18.7174L5.28129 18.0103C5.08603 17.815 5.08603 17.4984 5.28129 17.3032L17.3021 5.28237C17.4974 5.08711 17.8139 5.08711 18.0092 5.28237L18.7163 5.98948Z" fill="black"/>
</svg>
