<svg width="136" height="40" fill="none" xmlns="http://www.w3.org/2000/svg"><g clip-path="url(#a)"><path d="M130.662 39.501H5.666a4.515 4.515 0 0 1-4.502-4.5v-30c0-2.48 2.021-4.5 4.502-4.5h124.996a4.51 4.51 0 0 1 4.502 4.5v30c0 2.47-2.024 4.5-4.502 4.5Z" stroke="#fff"/><path d="M71.783 13.233c-.901 0-1.661-.317-2.262-.94a3.209 3.209 0 0 1-.914-2.294c0-.91.308-1.681.914-2.292.598-.624 1.358-.94 2.26-.94.891 0 1.651.316 2.262.94.606.63.914 1.401.914 2.292-.01.912-.318 1.683-.914 2.291-.598.629-1.358.943-2.26.943Zm-26.824 0a3.136 3.136 0 0 1-2.273-.928c-.62-.613-.936-1.389-.936-2.304 0-.915.315-1.69.936-2.304.614-.616 1.379-.928 2.273-.928.437 0 .861.087 1.269.264.4.172.725.407.966.694l.06.072-.674.663-.07-.082c-.38-.454-.888-.676-1.561-.676-.601 0-1.125.215-1.557.639-.435.426-.656.985-.656 1.66 0 .676.221 1.235.656 1.661.432.424.956.639 1.557.639.64 0 1.18-.215 1.6-.639.248-.249.401-.598.456-1.04h-2.158v-.932h3.084l.013.085c.022.157.045.319.045.468 0 .86-.259 1.557-.77 2.07-.581.609-1.341.918-2.26.918Zm35.665-.132h-.95L76.76 8.42l.025.843v3.835h-.951V6.901h1.085l.03.048 2.74 4.409-.026-.84V6.9h.962v6.2Zm-15.988 0h-.964V7.834h-1.671V6.9h4.304v.933h-1.672V13.1h.003Zm-3.42 0h-.961V6.9h.96v6.2Zm-5.402 0h-.961V7.834h-1.671V6.9h4.304v.933h-1.672V13.1Zm-3.24-.01h-3.686V6.9h3.685v.933h-2.722v1.7h2.456v.923h-2.456v1.701h2.722v.933Zm17.652-1.44c.43.432.951.65 1.557.65.624 0 1.133-.213 1.557-.65.423-.423.636-.98.636-1.65 0-.67-.213-1.23-.633-1.65a2.126 2.126 0 0 0-1.557-.65c-.624 0-1.133.213-1.555.65-.422.423-.636.98-.636 1.65 0 .67.211 1.23.631 1.65Z" fill="#fff"/><path fill-rule="evenodd" clip-rule="evenodd" d="M68.519 21.755c-2.347 0-4.25 1.788-4.25 4.255 0 2.444 1.915 4.254 4.25 4.254 2.347 0 4.25-1.8 4.25-4.254 0-2.467-1.903-4.255-4.25-4.255Zm0 6.823c-1.284 0-2.39-1.067-2.39-2.578 0-1.534 1.108-2.579 2.39-2.579 1.284 0 2.389 1.045 2.389 2.579.002 1.521-1.105 2.578-2.39 2.578Zm-9.271-6.823c-2.347 0-4.25 1.788-4.25 4.255 0 2.444 1.915 4.254 4.25 4.254 2.347 0 4.25-1.8 4.25-4.254 0-2.467-1.906-4.255-4.25-4.255Zm0 6.823c-1.284 0-2.39-1.067-2.39-2.578 0-1.534 1.108-2.579 2.39-2.579 1.284 0 2.389 1.045 2.389 2.579 0 1.521-1.105 2.578-2.39 2.578Zm-11.032-5.523v1.8h4.304c-.132 1.01-.465 1.756-.974 2.267-.63.633-1.604 1.322-3.32 1.322-2.645 0-4.714-2.145-4.714-4.8 0-2.657 2.069-4.801 4.714-4.801 1.428 0 2.468.566 3.24 1.289l1.272-1.277c-1.072-1.032-2.5-1.823-4.502-1.823-3.629 0-6.673 2.968-6.673 6.601 0 3.644 3.042 6.601 6.673 6.601 1.96 0 3.43-.643 4.592-1.855 1.184-1.19 1.56-2.868 1.56-4.222 0-.422-.033-.8-.1-1.122h-6.075c.003-.003.003.02.003.02Zm45.123 1.401c-.355-.955-1.428-2.71-3.628-2.71-2.18 0-3.994 1.723-3.994 4.254 0 2.389 1.793 4.254 4.205 4.254 1.937 0 3.065-1.19 3.53-1.888l-1.439-.967c-.477.71-1.14 1.177-2.081 1.177-.951 0-1.617-.434-2.059-1.29l5.665-2.356c0 .003-.199-.474-.199-.474Zm-5.776 1.422c-.045-1.644 1.271-2.48 2.212-2.48.743 0 1.361.367 1.572.901l-3.784 1.579ZM82.96 30h1.86V17.5h-1.86V30Zm-3.055-7.3h-.067c-.42-.5-1.217-.955-2.235-.955-2.114 0-4.061 1.868-4.061 4.267 0 2.39 1.937 4.235 4.06 4.235 1.006 0 1.816-.457 2.236-.968h.067v.611c0 1.623-.864 2.499-2.258 2.499-1.14 0-1.847-.823-2.135-1.511l-1.617.678c.464 1.122 1.703 2.511 3.75 2.511 2.18 0 4.028-1.29 4.028-4.434V22h-1.758v.7h-.01Zm-2.136 5.878c-1.284 0-2.357-1.077-2.357-2.566 0-1.501 1.073-2.588 2.357-2.588 1.272 0 2.258 1.1 2.258 2.588.012 1.49-.984 2.566-2.258 2.566Zm24.279-11.077h-4.448V30h1.86v-4.733h2.591c2.058 0 4.083-1.5 4.083-3.878 0-2.38-2.017-3.888-4.086-3.888Zm.055 6.02h-2.645v-4.29h2.645c1.393 0 2.18 1.155 2.18 2.145 0 .98-.797 2.145-2.18 2.145Zm11.486-1.788c-1.351 0-2.744.601-3.32 1.91l1.649.688c.355-.688 1.005-.922 1.693-.922.964 0 1.938.578 1.96 1.61v.133c-.333-.19-1.063-.479-1.937-.479-1.781 0-3.586.978-3.586 2.81 0 1.679 1.46 2.756 3.087 2.756 1.249 0 1.937-.566 2.366-1.222h.067v.968h1.794v-4.788c0-2.23-1.649-3.464-3.773-3.464Zm-.233 6.845c-.609 0-1.461-.299-1.461-1.067 0-.968 1.063-1.334 1.97-1.334.819 0 1.207.177 1.694.421a2.243 2.243 0 0 1-2.203 1.98ZM123.904 22l-2.136 5.421h-.067L119.488 22h-2.001l3.32 7.578-1.892 4.212h1.937L125.961 22h-2.057Zm-16.744 8h1.86V17.5h-1.86V30Z" fill="#fff"/><path d="m10.775 7.978 11.989 12.024L10.781 32.03c-.117-.265-.18-.591-.18-.973V8.946c0-.378.062-.702.174-.968ZM11.466 7.255 23.47 19.293l3.756-3.77L13.124 7.48c-.632-.362-1.215-.419-1.659-.225ZM28.126 16.038 24.176 20l3.95 3.964 4.415-2.52c1.393-.798 1.393-2.1 0-2.887l-4.415-2.52ZM27.227 24.479l-3.757-3.77-12.003 12.05c.444.19 1.026.128 1.656-.224l14.104-8.056Z" fill="#fff"/></g><defs><clipPath id="a"><path fill="#fff" transform="translate(.664)" d="M0 0h135v40H0z"/></clipPath></defs></svg>