<svg width="429" height="427" viewBox="0 0 429 427" fill="none" xmlns="http://www.w3.org/2000/svg">
<path d="M341.822 69.4234C312.635 58.2661 279.48 62.2985 250.806 71.4454C238.099 41.0554 213.534 20.383 184.347 9.22566C114.788 -17.3644 36.5538 17.5982 9.96379 87.1571C-14.9222 152.258 11.83 208.782 35.4382 258.653C54.6427 299.224 104.575 405.022 105.072 406.092L114.94 427.004L188.375 395.972L177.112 372.111C176.611 371.052 126.669 265.211 107.443 224.593C84.5788 176.28 72.2298 147.393 84.3771 115.616C92.2621 94.989 112.292 81.3818 134.218 80.5433C144.934 80.1346 155.655 82.9066 164.905 88.3601C195.076 106.119 215.985 162.537 215.985 162.537C215.985 162.537 278.428 132.531 313.371 143.853C342.435 153.269 356.246 186.852 345.339 215.386C333.192 247.163 304.722 260.447 255.46 281.188C249.136 283.854 241.296 287.148 232.542 290.841L195.843 306.311L226.782 379.711L263.482 364.241C272.22 360.554 280.048 357.256 286.357 354.598C337.212 333.191 394.848 308.926 419.734 243.825C446.344 174.247 411.381 96.0135 341.822 69.4234Z" fill="#C1F11D"/>
</svg>
