<svg xmlns="http://www.w3.org/2000/svg" width="17" height="17" fill="none"><path fill="#141414" d="M5.67 8.5a2.83 2.83 0 1 1 5.66 0 2.83 2.83 0 0 1-5.66 0Zm-1.53 0a4.36 4.36 0 1 0 8.72 0 4.36 4.36 0 0 0-8.72 0Zm7.88-4.54a1.02 1.02 0 1 0 1.02-1.02 1.02 1.02 0 0 0-1.02 1.02ZM5.07 15.42a4.7 4.7 0 0 1-1.58-.3c-.4-.15-.68-.33-.98-.63-.3-.3-.48-.58-.64-.98a4.7 4.7 0 0 1-.29-1.57c-.04-.9-.05-1.17-.05-3.44s.01-2.54.05-3.43c.04-.83.18-1.28.3-1.58.15-.4.33-.68.63-.98.3-.3.58-.48.98-.64.3-.11.75-.25 1.58-.29.9-.04 1.16-.05 3.43-.05 2.27 0 2.54.01 3.44.05.82.04 1.27.18 1.57.3.4.15.68.33.98.63.3.3.48.58.64.98.11.3.25.75.29 1.58.04.9.05 1.16.05 3.43 0 2.27 0 2.54-.05 3.44a4.71 4.71 0 0 1-.3 1.57c-.15.4-.33.68-.63.98-.3.3-.58.48-.98.64-.3.11-.75.25-1.57.29-.9.04-1.17.05-3.44.05s-2.54-.01-3.43-.05ZM5 .05c-.9.04-1.53.19-2.07.4-.56.21-1.03.5-1.5.98-.48.47-.77.94-.98 1.5A6.23 6.23 0 0 0 .05 5C.01 5.9 0 6.2 0 8.5s.01 2.6.05 3.5c.04.91.19 1.53.4 2.07.21.56.5 1.03.98 1.5.47.48.94.77 1.5.98.54.21 1.16.36 2.07.4.9.04 1.2.05 3.5.05s2.6 0 3.5-.05c.91-.04 1.53-.19 2.07-.4.56-.21 1.03-.5 1.5-.98.48-.47.77-.94.98-1.5.21-.54.36-1.16.4-2.07.04-.9.05-1.2.05-3.5s-.01-2.6-.05-3.5a6.23 6.23 0 0 0-.4-2.07 4.18 4.18 0 0 0-.98-1.5 4.16 4.16 0 0 0-1.5-.98A6.22 6.22 0 0 0 12 .05C11.1.01 10.8 0 8.5 0 6.18 0 5.9.01 5 .05Z"/></svg>