<svg width="482" height="527" viewBox="0 0 482 527" fill="none" xmlns="http://www.w3.org/2000/svg">
<path fill-rule="evenodd" clip-rule="evenodd" d="M0 58.9734C192.017 -34.7568 370.807 4.27217 443.423 33.5925L480.368 48.5093L481.265 88.3413C487.183 350.939 366.797 481.203 280.847 518.106L261.048 526.606L240.333 520.681C152.781 495.641 94.9642 435.982 58.9762 376.193C23.3696 317.038 6.57958 253.883 1.89547 211.493L122.19 198.2C125.185 225.304 137.106 271.312 162.668 313.779C183.925 349.094 212.756 379.127 251.279 396.223C289.284 368.912 353.498 294.229 359.929 133.696C293.228 116.975 176.83 107.333 53.0902 167.735L0 58.9734Z" fill="#BFF11B"/>
</svg>
