<svg xmlns="http://www.w3.org/2000/svg" width="24" height="16" viewBox="0 0 24 16"><path fill="#141414" d="m9.08 3.68-.41-.84c-.7-1.4-.7-1.47-1.4-1.56-.2-.03-.3-.05-.3-.15V.69l.05-.05h4.15l.11.04v.44c0 .1-.07.15-.21.15l-.3.04c-.77.06-.64.37-.14 1.38l4.8 9.82.17.04 4.26-10.1c.14-.41.12-.7-.07-.87-.2-.17-.33-.27-.82-.29l-.4-.02a.23.23 0 0 1-.14-.05.15.15 0 0 1-.07-.12V.68l.07-.04h4.8l.06.04v.42c0 .11-.07.17-.2.17-.63.03-1.1.17-1.4.41-.3.25-.54.58-.7 1.03 0 0-3.92 8.96-5.26 11.94-.52.98-1.02.89-1.47-.03-.93-1.93-3.57-7.78-3.57-7.78l-1.6-3.15z"/><path fill="#141414" d="M16.77.64h-3.91l-.06.04v.42c0 .05.02.1.06.12.05.04.1.05.14.05l.2.02c.49.02.72.15.78.23.12.15.18.3-.1.93L8.81 12.53l-.13-.04S5.07 4.86 4.02 2.31c-.1-.27-.16-.46-.16-.59 0-.26.24-.4.7-.41l.55-.03c.15 0 .22-.05.22-.17V.7L5.28.65H.05L0 .69v.44c0 .08.1.13.3.15.55.03.91.12 1.09.27.17.14.35.52.6 1.1 1.31 3.16 4.11 8.8 5.47 12.01.4.88.89 1.02 1.48-.02 1.04-1.93 3.85-7.8 3.85-7.8L15 2.72c.26-.44.5-.83.63-1.01.23-.33.36-.4 1-.42.12 0 .19-.06.19-.18V.68l-.05-.04z"/></svg>